<svg xmlns="http://www.w3.org/2000/svg" xmlns:xlink="http://www.w3.org/1999/xlink" width="1440" height="860" viewBox="0 0 1440 860">
    <defs>
        <path id="a" d="M0 0h1440v860H0z"/>
        <linearGradient id="d" x1="0%" x2="50%" y1="50%" y2="50%">
            <stop offset="0%" stop-color="#64218A"/>
            <stop offset="100%" stop-color="#5B1E7F"/>
        </linearGradient>
        <path id="c" d="M896 1240.789c513.5 0 802.21-139.559 802.21-481.423 0-138.329-2-349.796-95.104-480.222C1466.114 87.235 1188.624 0 894.5 0 400.481 0 0 277.136 0 619c0 76.607 26.68 363.983 80.04 862.129 201.64-160.227 473.627-240.34 815.96-240.34z"/>
        <linearGradient id="e" x1="31.481%" x2="3.631%" y1="49.721%" y2="49.115%">
            <stop offset="0%" stop-color="#8C3093" stop-opacity="0"/>
            <stop offset="100%"/>
        </linearGradient>
        <linearGradient id="g" x1="31.481%" x2="3.631%" y1="49.806%" y2="49.387%">
            <stop offset="0%" stop-color="#8C3093" stop-opacity="0"/>
            <stop offset="100%"/>
        </linearGradient>
        <linearGradient id="h" x1="31.481%" x2="3.631%" y1="49.482%" y2="48.359%">
            <stop offset="0%" stop-color="#8C3093" stop-opacity="0"/>
            <stop offset="100%"/>
        </linearGradient>
        <linearGradient id="i" x1="31.481%" x2="3.631%" y1="49.889%" y2="49.65%">
            <stop offset="0%" stop-color="#8C3093" stop-opacity="0"/>
            <stop offset="100%"/>
        </linearGradient>
    </defs>
    <g fill="none" fill-rule="evenodd">
        <use fill="#FFF" xlink:href="#a"/>
        <g mask="url(#b)">
            <g transform="rotate(10 3151.806 -128.443)">
                <mask id="f" fill="#fff">
                    <use xlink:href="#c"/>
                </mask>
                <use fill="url(#d)" xlink:href="#c"/>
                <path fill="url(#e)" d="M257.557 728.804C389.39 874.268 573.64 963.397 810.306 996.192c236.666 32.794 505.333 53.085 806 60.873-360.545 74.706-666.156 133.354-916.834 175.946-135.013-18.255-241.57-45.231-319.674-80.93-75.197-33.837-133.13-77.464-173.798-130.882l51.557-292.395z" mask="url(#f)" opacity=".1" transform="matrix(-1 0 0 1 1822.306 0)"/>
                <path fill="url(#g)" d="M235.308 818c22.919 22.738 40.293 39.432 52.123 50.08 155.493 139.973 339.452 224.676 551.877 254.112 236.666 32.794 505.333 53.085 806 60.873l-761.735 56.063c-151.997-7.662-278.566-27.495-379.708-59.497-112.05-39.294-193.73-91.777-245.036-157.447L230 1001.5l5.308-183.5z" mask="url(#f)" opacity=".05" transform="matrix(-1 0 0 1 1875.308 0)"/>
                <path fill="url(#h)" d="M178.978 1162.34l-25.732-141.74c191.559-42.25 378.25 1.883 560.075 132.4 199.12 142.931 269.734 170.71 211.843 83.335-117.927 5.18-201.387 10.657-250.38 16.43-82.439 9.713-162.052 29.076-205.353 38.644-81.904 18.098-165.561 51.11-250.971 99.036l-39.482-228.106z" mask="url(#f)" opacity=".1"/>
                <path fill="url(#i)" d="M168.376 1229.762c-10.556-64.377-.78-97.964 29.33-100.759 163.098-15.14 322.616 33.258 478.555 145.194 97.117 69.712 104.879-21.219 233.337.5 89.946 15.207-15.876 15.471-317.466.79l-191.75-8.48c-57.833 4.424-101.562 8.873-131.189 13.347-29.626 4.475-58.375 10.252-86.245 17.333l-14.572-67.925z" mask="url(#f)" opacity=".3" transform="rotate(-15 552.43 1213.64)"/>
            </g>
        </g>
    </g>
</svg>
